<svg xmlns="http://www.w3.org/2000/svg" width="128" height="128"><path d="M0 0 C1.875 0.75 1.875 0.75 4 2 C4.268125 2.66 4.53625 3.32 4.8125 4 C5.95978833 6.42313956 5.95978833 6.42313956 9.625 7.25 C10.73875 7.4975 11.8525 7.745 13 8 C12.25 12.75 12.25 12.75 10 15 C9.53993654 17.20250992 9.53993654 17.20250992 9.375 19.625 C9.30023438 20.44226563 9.22546875 21.25953125 9.1484375 22.1015625 C9.09945312 22.72804688 9.05046875 23.35453125 9 24 C4.2 23.06666667 4.2 23.06666667 1.9375 22.3125 C-0.62596831 21.89903737 -1.76482492 22.77425883 -4 24 C-4.99 24 -5.98 24 -7 24 C-7.03738281 23.38511719 -7.07476562 22.77023438 -7.11328125 22.13671875 C-7.17902344 21.32847656 -7.24476562 20.52023438 -7.3125 19.6875 C-7.37050781 18.88699219 -7.42851563 18.08648437 -7.48828125 17.26171875 C-7.80697194 14.91856765 -7.80697194 14.91856765 -9.54296875 13.45703125 C-10.02378906 12.97621094 -10.50460938 12.49539062 -11 12 C-11 10.68 -11 9.36 -11 8 C-9.39125 7.690625 -9.39125 7.690625 -7.75 7.375 C-3.29408826 5.7411657 -2.22222392 4.08889201 0 0 Z " fill="#F8A500" transform="translate(63,52)"></path><path d="M0 0 C1.875 0.75 1.875 0.75 4 2 C4.268125 2.66 4.53625 3.32 4.8125 4 C5.95978833 6.42313956 5.95978833 6.42313956 9.625 7.25 C10.73875 7.4975 11.8525 7.745 13 8 C12.25 12.75 12.25 12.75 10 15 C9.53993654 17.20250992 9.53993654 17.20250992 9.375 19.625 C9.30023438 20.44226563 9.22546875 21.25953125 9.1484375 22.1015625 C9.09945312 22.72804688 9.05046875 23.35453125 9 24 C4.2 23.06666667 4.2 23.06666667 1.9375 22.3125 C-0.62596831 21.89903737 -1.76482492 22.77425883 -4 24 C-4.99 24 -5.98 24 -7 24 C-6.95359375 23.38511719 -6.9071875 22.77023438 -6.859375 22.13671875 C-6.7507025 19.703231 -6.70617174 17.41976215 -7 15 C-8.9004467 13.15684329 -8.9004467 13.15684329 -11 12 C-11 10.68 -11 9.36 -11 8 C-9.39125 7.690625 -9.39125 7.690625 -7.75 7.375 C-3.29408826 5.7411657 -2.22222392 4.08889201 0 0 Z " fill="#F8A500" transform="translate(89,52)"></path><path d="M0 0 C1.875 0.75 1.875 0.75 4 2 C4.268125 2.66 4.53625 3.32 4.8125 4 C5.95978833 6.42313956 5.95978833 6.42313956 9.625 7.25 C10.73875 7.4975 11.8525 7.745 13 8 C12.36585366 12.69268293 12.36585366 12.69268293 10.4375 14.3125 C8.00678714 17.16594554 8.82127283 20.3658808 9 24 C4.2 23.06666667 4.2 23.06666667 1.9375 22.3125 C-0.62596831 21.89903737 -1.76482492 22.77425883 -4 24 C-4.99 24 -5.98 24 -7 24 C-7.03738281 23.38511719 -7.07476563 22.77023438 -7.11328125 22.13671875 C-7.17902344 21.32847656 -7.24476562 20.52023438 -7.3125 19.6875 C-7.37050781 18.88699219 -7.42851562 18.08648437 -7.48828125 17.26171875 C-7.80697194 14.91856765 -7.80697194 14.91856765 -9.54296875 13.45703125 C-10.02378906 12.97621094 -10.50460938 12.49539062 -11 12 C-11 10.68 -11 9.36 -11 8 C-9.39125 7.690625 -9.39125 7.690625 -7.75 7.375 C-3.29408826 5.7411657 -2.22222392 4.08889201 0 0 Z " fill="#F8A500" transform="translate(37,52)"></path><path d="M0 0 C1.875 0.125 1.875 0.125 4 1 C5.25 4.0625 5.25 4.0625 6 7 C7.423125 6.9690625 7.423125 6.9690625 8.875 6.9375 C12 7 12 7 14 8 C13.5812813 10.42856845 13.35655214 11.68710731 11.46875 13.34375 C9.51951399 15.54182464 9.68692034 16.79916776 9.8125 19.6875 C9.83957031 20.49574219 9.86664062 21.30398437 9.89453125 22.13671875 C9.94673828 23.05904297 9.94673828 23.05904297 10 24 C5.2 23.06666667 5.2 23.06666667 2.9375 22.3125 C0.37403169 21.89903737 -0.76482492 22.77425883 -3 24 C-3.99 24 -4.98 24 -6 24 C-7 21 -7 21 -6.875 18 C-6.66147173 14.98589466 -6.66147173 14.98589466 -8.5625 13.4375 C-9.036875 12.963125 -9.51125 12.48875 -10 12 C-9.6875 9.3125 -9.6875 9.3125 -9 7 C-8.071875 6.95875 -7.14375 6.9175 -6.1875 6.875 C-2.71052362 6.31140969 -2.71052362 6.31140969 -1.125 2.9375 C-0.75375 1.968125 -0.3825 0.99875 0 0 Z " fill="#F8A500" transform="translate(10,52)"></path><path d="M0 0 C0.99 0 1.98 0 3 0 C3.350625 0.94875 3.70125 1.8975 4.0625 2.875 C5.7714341 6.34336062 5.7714341 6.34336062 9.6875 7.375 C10.780625 7.58125 11.87375 7.7875 13 8 C12.25 12.75 12.25 12.75 10 15 C9.95833998 17.3329614 9.95833998 19.6670386 10 22 C9.67 22.66 9.34 23.32 9 24 C4.2 23.06666667 4.2 23.06666667 1.9375 22.3125 C-0.62596831 21.89903737 -1.76482492 22.77425883 -4 24 C-4.99 24 -5.98 24 -7 24 C-6.95359375 23.39671875 -6.9071875 22.7934375 -6.859375 22.171875 C-6.48437136 16.97065798 -6.48437136 16.97065798 -9 12.625 C-9.66 12.08875 -10.32 11.5525 -11 11 C-11 10.01 -11 9.02 -11 8 C-8.29120665 6.64560332 -5.99066732 6.93498549 -3 7 C-2.690625 6.030625 -2.38125 5.06125 -2.0625 4.0625 C-1 1 -1 1 0 0 Z " fill="#F8A500" transform="translate(115,52)"></path></svg>